<svg viewBox="0 0 14 13" fill="none" xmlns="http://www.w3.org/2000/svg">
	<path d="M6.93747 8.74988C7.4016 8.74988 7.84672 8.56551 8.17491 8.23732C8.50309 7.90913 8.68747 7.46401 8.68747 6.99988C8.68747 6.94863 8.68512 6.89785 8.68075 6.8477L6.78528 8.74317C6.83544 8.74754 6.88606 8.74988 6.93747 8.74988ZM12.73 1.58676L12.0625 0.919883C12.039 0.896459 12.0072 0.883301 11.9741 0.883301C11.941 0.883301 11.9092 0.896459 11.8857 0.919883L10.1776 2.62848C9.23533 2.14691 8.17611 1.90613 6.99997 1.90613C3.99684 1.90613 1.75622 3.4702 0.278093 6.59832C0.21868 6.72413 0.187866 6.86153 0.187866 7.00066C0.187866 7.1398 0.21868 7.2772 0.278093 7.40301C0.868718 8.64707 1.57992 9.64421 2.41169 10.3944L0.758718 12.0468C0.735294 12.0702 0.722135 12.102 0.722135 12.1351C0.722135 12.1683 0.735294 12.2 0.758718 12.2235L1.42575 12.8905C1.44919 12.9139 1.48097 12.9271 1.51411 12.9271C1.54725 12.9271 1.57903 12.9139 1.60247 12.8905L12.73 1.76363C12.7416 1.75202 12.7508 1.73824 12.7571 1.72306C12.7634 1.70789 12.7666 1.69162 12.7666 1.6752C12.7666 1.65877 12.7634 1.6425 12.7571 1.62733C12.7508 1.61215 12.7416 1.59837 12.73 1.58676ZM4.18747 6.99988C4.18742 6.52489 4.31041 6.05799 4.54445 5.64466C4.77849 5.23133 5.11559 4.88566 5.52293 4.64133C5.93026 4.39701 6.39393 4.26236 6.86878 4.25049C7.34362 4.23863 7.81344 4.34996 8.23247 4.57363L7.47278 5.33332C7.16641 5.23522 6.83893 5.22341 6.52628 5.29917C6.21363 5.37494 5.9279 5.53536 5.70042 5.76284C5.47295 5.99031 5.31253 6.27605 5.23676 6.5887C5.16099 6.90134 5.1728 7.22882 5.27091 7.5352L4.51122 8.29488C4.29804 7.89657 4.18681 7.45166 4.18747 6.99988Z" fill="currentColor" />
	<path d="M13.7219 6.59678C13.1719 5.43844 12.5173 4.49391 11.758 3.76318L9.50582 6.01553C9.69566 6.5118 9.73775 7.05243 9.62697 7.5721C9.5162 8.09177 9.25732 8.56825 8.8816 8.94397C8.50588 9.31969 8.0294 9.57857 7.50973 9.68934C6.99006 9.80011 6.44943 9.75803 5.95316 9.56818L4.04285 11.4785C4.9291 11.8886 5.91483 12.0937 7.00003 12.0937C10.0032 12.0937 12.2438 10.5296 13.7219 7.40146C13.7813 7.27566 13.8122 7.13825 13.8122 6.99912C13.8122 6.85999 13.7813 6.72258 13.7219 6.59678Z" fill="currentColor" />
</svg>
