<svg viewBox="0 0 25 12" fill="none" xmlns="http://www.w3.org/2000/svg">
	<path d="M18.2143 0C18.6857 0 19.0714 0.385714 19.0714 0.857143V11.1429C19.0714 11.6143 18.6857 12 18.2143 12H14.7857C14.3143 12 13.9286 11.6143 13.9286 11.1429V8.57143H10.5V11.1429C10.5 11.6143 10.1143 12 9.64287 12H6.21429C5.74287 12 5.35715 11.6143 5.35715 11.1429V0.857143C5.35715 0.385714 5.74287 0 6.21429 0H9.64287C10.1143 0 10.5 0.385714 10.5 0.857143V3.42857H13.9286V0.857143C13.9286 0.385714 14.3143 0 14.7857 0H18.2143ZM1.92858 2.57143C1.92858 2.3441 2.01889 2.12608 2.17963 1.96534C2.34038 1.80459 2.55839 1.71429 2.78572 1.71429H3.64287V10.2857H2.78572C2.55839 10.2857 2.34038 10.1954 2.17963 10.0347C2.01889 9.87392 1.92858 9.6559 1.92858 9.42857V7.71429C1.47392 7.71429 1.03789 7.53367 0.716397 7.21218C0.394906 6.89069 0.214294 6.45466 0.214294 6C0.214294 5.54534 0.394906 5.10931 0.716397 4.78782C1.03789 4.46633 1.47392 4.28571 1.92858 4.28571V2.57143ZM22.5 4.28571C22.9547 4.28571 23.3907 4.46633 23.7122 4.78782C24.0337 5.10931 24.2143 5.54534 24.2143 6C24.2143 6.45466 24.0337 6.89069 23.7122 7.21218C23.3907 7.53367 22.9547 7.71429 22.5 7.71429V9.42857C22.5 9.6559 22.4097 9.87392 22.249 10.0347C22.0882 10.1954 21.8702 10.2857 21.6429 10.2857H20.7857V1.71429H21.6429C21.8702 1.71429 22.0882 1.80459 22.249 1.96534C22.4097 2.12608 22.5 2.3441 22.5 2.57143V4.28571Z" fill="currentColor" />
</svg>
