<svg viewBox="0 0 32 16" fill="none" xmlns="http://www.w3.org/2000/svg">
	<path d="M24 0C24.6286 0 25.1429 0.514286 25.1429 1.14286V14.8571C25.1429 15.4857 24.6286 16 24 16H19.4286C18.8 16 18.2857 15.4857 18.2857 14.8571V11.4286H13.7143V14.8571C13.7143 15.4857 13.2 16 12.5714 16H8C7.37143 16 6.85714 15.4857 6.85714 14.8571V1.14286C6.85714 0.514286 7.37143 0 8 0H12.5714C13.2 0 13.7143 0.514286 13.7143 1.14286V4.57143H18.2857V1.14286C18.2857 0.514286 18.8 0 19.4286 0H24ZM2.28571 3.42857C2.28571 3.12547 2.40612 2.83478 2.62045 2.62045C2.83478 2.40612 3.12547 2.28571 3.42857 2.28571H4.57143V13.7143H3.42857C3.12547 13.7143 2.83478 13.5939 2.62045 13.3796C2.40612 13.1652 2.28571 12.8745 2.28571 12.5714V10.2857C1.67951 10.2857 1.09812 10.0449 0.66947 9.61624C0.240816 9.18759 0 8.60621 0 8C0 7.39379 0.240816 6.81241 0.66947 6.38376C1.09812 5.9551 1.67951 5.71429 2.28571 5.71429V3.42857ZM29.7143 5.71429C30.3205 5.71429 30.9019 5.9551 31.3305 6.38376C31.7592 6.81241 32 7.39379 32 8C32 8.60621 31.7592 9.18759 31.3305 9.61624C30.9019 10.0449 30.3205 10.2857 29.7143 10.2857V12.5714C29.7143 12.8745 29.5939 13.1652 29.3795 13.3796C29.1652 13.5939 28.8745 13.7143 28.5714 13.7143H27.4286V2.28571H28.5714C28.8745 2.28571 29.1652 2.40612 29.3795 2.62045C29.5939 2.83478 29.7143 3.12547 29.7143 3.42857V5.71429Z" fill="currentColor" />
</svg>
