<svg viewBox="0 0 17 15" fill="none" xmlns="http://www.w3.org/2000/svg">
	<path d="M16.4308 7.37723L9.1611 0.164394C9.10876 0.11232 9.04659 0.0710071 8.97814 0.0428192C8.9097 0.0146313 8.83633 0.00012207 8.76223 0.00012207C8.68814 0.00012207 8.61477 0.0146313 8.54632 0.0428192C8.47788 0.0710071 8.41571 0.11232 8.36336 0.164394L1.0937 7.37723C0.881916 7.58751 0.761902 7.87315 0.761902 8.17106C0.761902 8.78965 1.26843 9.29259 1.89144 9.29259H2.65741V14.4394C2.65741 14.7495 2.9098 15.0001 3.22218 15.0001H7.63269V11.0748H9.60939V15.0001H14.3023C14.6147 15.0001 14.8671 14.7495 14.8671 14.4394V9.29259H15.633C15.9331 9.29259 16.2207 9.17518 16.4325 8.96314C16.872 8.52504 16.872 7.81533 16.4308 7.37723Z" fill="currentColor" />
</svg>
