<svg viewBox="0 0 190 136" fill="none" xmlns="http://www.w3.org/2000/svg">
	<path d="M72.4792 27.0918V30.3789C72.4792 31.7324 72.2053 32.5864 71.6575 32.9409C71.1418 33.2954 69.1921 34.2461 65.8083 35.793C62.4568 37.3398 59.2341 39.1606 56.1404 41.2554C57.3328 39.5151 58.4124 38.2261 59.3792 37.3882C60.3782 36.5503 61.7156 35.5029 63.3914 34.2461C61.9412 33.666 59.927 33.376 57.3489 33.376C53.3528 33.376 49.0344 34.1655 44.3938 35.7446C39.7854 37.3237 35.8538 39.209 32.5989 41.4004C29.3762 43.5918 27.7649 45.4287 27.7649 46.9111C27.7649 47.6846 28.2483 48.3291 29.2151 48.8447C30.2141 49.3281 31.7932 49.7148 33.9524 50.0049C36.1438 50.2627 38.8669 50.4399 42.1218 50.5366C45.3767 50.6333 49.3889 50.6816 54.1584 50.6816C57.6389 50.6816 59.8787 50.8105 60.8777 51.0684C61.8767 51.3262 62.3762 51.9224 62.3762 52.8569C62.3762 54.0493 61.78 55.4189 60.5876 56.9658C59.4275 58.4805 57.8806 59.3828 55.947 59.6729C52.95 60.1562 50.5652 60.5752 48.7927 60.9297C47.0203 61.252 44.9094 61.8159 42.4602 62.6216C40.0432 63.4272 37.3523 64.5874 34.3875 66.1021C29.9724 68.4224 26.5242 70.7749 24.0427 73.1597C21.5613 75.5444 20.3206 77.6553 20.3206 79.4922C20.3206 81.0713 21.2068 82.312 22.9792 83.2144C24.7517 84.0845 27.2976 84.5195 30.6169 84.5195C42.0574 84.5195 53.7073 79.3794 65.5667 69.0991C65.6311 72.2573 65.2766 75.0449 64.5032 77.4619C63.762 79.8467 62.2312 82.1348 59.9109 84.3262C57.9773 86.1631 55.1414 87.9194 51.4031 89.5952C47.697 91.271 43.6365 92.6084 39.2214 93.6074C34.8386 94.6064 30.7136 95.106 26.8464 95.106C22.3669 95.106 18.6609 94.0264 15.7283 91.8672C12.7957 89.7402 11.3293 86.9043 11.3293 83.3594C11.3293 80.7812 12.0383 78.2192 13.4563 75.6733C14.8743 73.1274 17.0496 70.6943 19.9822 68.374C22.9148 66.0215 26.6208 63.8945 31.1003 61.9932C35.6121 60.0918 40.8005 58.5933 46.6658 57.4976C47.5037 57.3364 47.9226 57.0786 47.9226 56.7241C47.9226 56.3374 47.4231 56.1118 46.4241 56.0474C45.4573 55.9507 43.6526 55.8862 41.01 55.854C38.3997 55.8218 36.0955 55.709 34.0974 55.5156C32.0994 55.3223 29.9885 54.9033 27.7649 54.2588C25.4768 53.5498 23.7043 52.3091 22.4475 50.5366C21.2229 48.7642 20.6106 46.7983 20.6106 44.6392C20.6106 41.8677 21.6096 39.0801 23.6077 36.2764C25.6057 33.4727 28.4255 30.9429 32.0671 28.687C35.7087 26.4312 40.1077 24.6265 45.2639 23.2729C50.4524 21.8872 56.1243 21.1943 62.2795 21.1943C65.8245 21.1943 68.2898 21.4038 69.6755 21.8228C71.0935 22.2095 71.9153 22.7412 72.1409 23.418C72.3665 24.0625 72.4792 25.2871 72.4792 27.0918ZM61.6511 9.30273C61.3611 9.30273 60.9744 9.54443 60.491 10.0278C60.0398 10.5112 59.5886 10.9946 59.1375 11.478C56.2371 14.7329 54.0295 16.3604 52.5149 16.3604C51.0647 16.3604 50.3396 15.7319 50.3396 14.4751C50.3396 13.7661 51.1936 12.2354 52.9016 9.88281C54.6096 7.53027 56.4949 5.40332 58.5574 3.50195C60.6521 1.56836 62.4407 0.601562 63.9231 0.601562C65.4055 0.601562 66.5818 1.52002 67.4519 3.35693C68.2253 4.93604 68.9343 6.96631 69.5789 9.44775C70.2234 11.9292 70.5457 13.5083 70.5457 14.1851C70.5457 14.6685 70.3684 15.1357 70.0139 15.5869C69.6917 16.0381 69.2727 16.2637 68.7571 16.2637C67.9192 16.2637 66.9524 15.748 65.8567 14.7168C64.761 13.6533 63.6814 12.187 62.6179 10.3179C62.3923 9.64111 62.0701 9.30273 61.6511 9.30273Z" fill="#98C739" />
	<path d="M79.2468 72.7729V61.3647C78.0544 61.6548 76.9104 62.1704 75.8147 62.9116C74.7512 63.6528 73.6072 64.5713 72.3826 65.667C71.1902 66.7627 70.449 67.3105 70.1589 67.3105C69.8044 67.3105 69.6272 66.8433 69.6272 65.9087C69.6272 64.9741 70.5779 63.3306 72.4792 60.978C74.4128 58.5933 76.5398 56.4019 78.8601 54.4038C81.1804 52.3735 82.8562 51.3584 83.8875 51.3584C84.4998 51.3584 85.0315 51.7129 85.4827 52.4219C85.9338 53.1309 86.1594 54.0977 86.1594 55.3223C86.1594 56.1279 86.1433 56.8691 86.1111 57.5459C86.0789 58.2227 86.0466 59.125 86.0144 60.2529C85.9822 61.3809 85.9338 63.0083 85.8694 65.1353C92.9915 57.5298 97.2131 53.7271 98.5344 53.7271C98.9211 53.7271 99.2273 53.8882 99.4529 54.2104C99.7107 54.5005 99.8396 54.8711 99.8396 55.3223C99.8396 56.3857 98.9695 58.0293 97.2292 60.2529C95.5212 62.4443 94.3772 63.54 93.7971 63.54C92.9915 63.54 92.363 63.4111 91.9119 63.1533L85.7727 70.9844C85.8372 73.8203 86.0789 75.9312 86.4978 77.3169C86.949 78.7026 87.7385 79.3955 88.8665 79.3955C89.8333 79.3955 90.9612 78.9121 92.2502 77.9453C93.5393 76.9785 95.634 75.1899 98.5344 72.5796V75.915C91.928 85.0352 87.2551 89.5952 84.5159 89.5952C82.8079 89.5952 81.5833 88.6929 80.842 86.8882C80.1331 85.0835 79.6658 82.312 79.4402 78.5737C78.3123 79.7339 76.991 81.1357 75.4763 82.7793C73.9617 84.4229 72.8499 85.5991 72.1409 86.3081C71.4641 86.9849 70.8357 87.5488 70.2556 88C69.7078 88.4512 69.2083 88.6768 68.7571 88.6768C68.3059 88.6768 68.0803 88.29 68.0803 87.5166C68.0803 86.2275 68.7571 84.4551 70.1106 82.1992C71.4963 79.9434 72.4954 78.8154 73.1077 78.8154C73.1721 78.8154 73.3171 78.8477 73.5427 78.9121C73.7683 78.9766 73.8811 79.0088 73.8811 79.0088L79.2468 72.7729ZM118.45 51.165C117.645 51.165 116.871 50.8589 116.13 50.2466C115.421 49.6343 115.067 48.8608 115.067 47.9263C115.067 46.5083 115.743 44.9292 117.097 43.189C118.45 41.4487 119.852 40.5786 121.302 40.5786C122.269 40.5786 123.075 40.8848 123.719 41.4971C124.364 42.0771 124.686 42.9312 124.686 44.0591C124.686 45.4448 124.026 46.9756 122.704 48.6514C121.383 50.3271 119.965 51.165 118.45 51.165ZM121.738 72.7729V76.3018C118.612 80.3301 115.695 83.3755 112.988 85.438C110.281 87.4683 107.977 88.4834 106.075 88.4834C103.433 88.4834 101.467 87.0977 100.178 84.3262C98.8889 81.5547 98.2444 78.5254 98.2444 75.2383C98.2444 73.9814 98.3733 72.7891 98.6311 71.6611C98.8889 70.501 99.1951 69.5503 99.5496 68.8091C99.9041 68.0679 100.565 66.9077 101.531 65.3286C106.108 58.2065 110.297 54.6455 114.1 54.6455C116.066 54.6455 117.049 55.4028 117.049 56.9175C117.049 57.9487 116.404 59.5601 115.115 61.7515C113.858 63.9429 112.73 65.5059 111.731 66.4404C108.927 69.1475 107.091 71.0327 106.22 72.0962C105.383 73.1597 104.964 74.3682 104.964 75.7217C104.964 76.8818 105.399 77.8486 106.269 78.6221C107.139 79.3955 108.267 79.7822 109.653 79.7822C111.167 79.7822 112.827 79.2344 114.632 78.1387C116.469 77.0107 118.837 75.2222 121.738 72.7729ZM138.318 47.6846H140.397C142.105 44.623 143.652 42.4639 145.037 41.207C146.423 39.918 148.002 39.2734 149.775 39.2734C151.547 39.2734 152.433 39.6763 152.433 40.4819C152.433 40.8687 151.74 41.916 150.355 43.624C148.969 45.332 147.922 46.7661 147.213 47.9263C148.308 48.0552 149.275 48.168 150.113 48.2646C150.983 48.3613 151.66 48.4419 152.143 48.5063C150.306 51.9224 148.002 55.4189 145.231 58.9961C144.328 58.9316 143.571 58.8833 142.959 58.8511C142.346 58.7866 141.718 58.7383 141.073 58.7061C140.461 58.6416 139.704 58.5771 138.802 58.5127C137.061 61.3164 135.595 63.8301 134.403 66.0537C133.242 68.2451 132.34 70.2593 131.696 72.0962C131.083 73.9331 130.777 75.6733 130.777 77.3169C130.777 79.5405 131.663 80.6523 133.436 80.6523C134.66 80.6523 136.256 80.0078 138.221 78.7188C140.219 77.3975 142.878 75.3833 146.198 72.6763V75.915C137.496 85.3574 131.067 90.0786 126.91 90.0786C125.46 90.0786 124.283 89.5146 123.381 88.3867C122.511 87.2588 122.076 85.8086 122.076 84.0361C122.076 82.8438 122.318 81.4258 122.801 79.7822C123.317 78.1387 124.219 75.6572 125.508 72.3379C125.057 72.7246 124.622 73.1113 124.203 73.498C123.816 73.8525 123.446 74.1909 123.091 74.5132C122.769 74.8032 122.414 75.1255 122.028 75.48C121.641 75.8022 121.254 76.1406 120.867 76.4951V73.1597C124.251 70.3237 128.344 65.3447 133.146 58.2227C132.662 58.1904 132.211 58.1743 131.792 58.1743C131.373 58.1421 130.874 58.126 130.294 58.126C128.392 58.126 126.974 58.2549 126.04 58.5127C125.653 58.6094 125.282 58.7222 124.928 58.8511C124.606 58.9478 124.38 58.9961 124.251 58.9961C124.122 58.9961 124.058 58.8994 124.058 58.7061C124.058 57.6426 124.719 56.0474 126.04 53.9204C127.103 52.1157 128.102 50.7783 129.037 49.9082C130.004 49.0381 131.164 48.458 132.517 48.168C133.903 47.8457 135.837 47.6846 138.318 47.6846ZM177.183 72.6763V75.915C175.056 77.8486 173.348 79.1377 172.059 79.7822C170.77 80.4268 168.917 80.6846 166.5 80.5557C162.311 85.5186 158.621 88 155.43 88C153.626 88 151.982 87.4038 150.5 86.2114C149.017 85.019 147.825 83.3916 146.923 81.3291C146.052 79.2666 145.617 76.9624 145.617 74.4165C145.617 72.354 146.294 70.0659 147.648 67.5522C149.033 65.0386 150.806 62.7021 152.965 60.543C155.156 58.3516 157.493 56.5952 159.974 55.2739C162.456 53.9204 164.76 53.2437 166.887 53.2437C168.402 53.2437 169.594 53.4854 170.464 53.9688C171.334 54.4199 171.769 55.0645 171.769 55.9023C171.769 56.5469 171.399 57.2881 170.657 58.126C171.882 58.3838 172.72 58.8188 173.171 59.4312C173.622 60.0112 173.848 61.0908 173.848 62.6699C173.848 64.2168 173.477 66.1665 172.736 68.519C172.027 70.8716 171.044 73.0791 169.787 75.1416L170.657 76.0117H171.383C171.93 76.0117 172.462 75.8828 172.978 75.625C173.526 75.335 174.009 75.0449 174.428 74.7549C174.847 74.4326 175.765 73.7397 177.183 72.6763ZM167.225 59.9629C164.551 61.5742 162.262 63.0405 160.361 64.3618C158.46 65.6509 156.848 66.9722 155.527 68.3257C154.206 69.647 153.32 70.9844 152.868 72.3379C152.063 75.9473 151.66 77.897 151.66 78.187C151.66 80.314 153.142 81.3774 156.107 81.3774C157.493 81.3774 159.813 80.1851 163.068 77.8003C162.52 76.2856 162.246 74.8354 162.246 73.4497C162.246 71.4194 162.665 69.3569 163.503 67.2622C164.341 65.1353 165.582 62.7021 167.225 59.9629Z" fill="white" />
	<path d="M8.337 109.86H5.089L5.768 109.181L3.654 119.135H2.464L4.578 109.181L4.977 109.86H1.736L1.96 108.81H8.561L8.337 109.86ZM7.14328 119.135L8.72528 111.701H9.91528L9.43228 113.983L8.99828 113.843C9.08695 113.567 9.21761 113.297 9.39028 113.031C9.56761 112.76 9.78461 112.517 10.0413 112.303C10.2979 112.083 10.5919 111.911 10.9233 111.785C11.2546 111.654 11.6209 111.589 12.0223 111.589C12.3209 111.589 12.5589 111.614 12.7363 111.666C12.9183 111.712 13.0279 111.75 13.0653 111.778L12.5053 112.947C12.4679 112.914 12.3816 112.872 12.2463 112.821C12.1156 112.769 11.9196 112.744 11.6583 112.744C11.2709 112.744 10.9349 112.814 10.6503 112.954C10.3656 113.094 10.1253 113.28 9.92928 113.514C9.73795 113.742 9.58161 113.992 9.46028 114.263C9.34361 114.533 9.25728 114.802 9.20128 115.068L8.33328 119.135H7.14328ZM13.7174 115.894L13.9414 114.83H19.6884L19.4784 115.18C19.5064 115.082 19.5274 114.981 19.5414 114.879C19.56 114.776 19.5694 114.631 19.5694 114.445C19.5694 114.109 19.497 113.808 19.3524 113.542C19.2077 113.271 18.986 113.059 18.6874 112.905C18.3934 112.746 18.0154 112.667 17.5534 112.667C17.0494 112.667 16.5944 112.755 16.1884 112.933C15.7824 113.105 15.4324 113.35 15.1384 113.668C14.849 113.985 14.625 114.356 14.4664 114.781C14.3124 115.205 14.2354 115.667 14.2354 116.167C14.2354 116.587 14.3124 116.948 14.4664 117.252C14.625 117.555 14.863 117.788 15.1804 117.952C15.5024 118.11 15.906 118.19 16.3914 118.19C16.802 118.19 17.159 118.15 17.4624 118.071C17.7704 117.987 18.0294 117.877 18.2394 117.742C18.454 117.602 18.6244 117.45 18.7504 117.287C18.881 117.123 18.972 116.96 19.0234 116.797H20.2274C20.162 117.095 20.022 117.392 19.8074 117.686C19.5927 117.98 19.3127 118.248 18.9674 118.491C18.622 118.729 18.2184 118.92 17.7564 119.065C17.2944 119.209 16.781 119.282 16.2164 119.282C15.5584 119.282 14.996 119.153 14.5294 118.897C14.0627 118.635 13.7057 118.274 13.4584 117.812C13.211 117.345 13.0874 116.804 13.0874 116.188C13.0874 115.534 13.204 114.93 13.4374 114.375C13.6754 113.815 14.0044 113.327 14.4244 112.912C14.8444 112.492 15.332 112.167 15.8874 111.939C16.4427 111.705 17.0377 111.589 17.6724 111.589C18.321 111.589 18.8717 111.719 19.3244 111.981C19.777 112.242 20.1224 112.597 20.3604 113.045C20.5984 113.493 20.7174 113.999 20.7174 114.564C20.7174 114.764 20.6964 114.998 20.6544 115.264C20.6124 115.525 20.5657 115.735 20.5144 115.894H13.7174ZM21.7738 119.135L23.3488 111.701H24.5318L22.9568 119.135H21.7738ZM24.4198 109.993C24.2098 109.993 24.0302 109.937 23.8808 109.825C23.7315 109.708 23.6568 109.549 23.6568 109.349C23.6568 109.195 23.6965 109.064 23.7758 108.957C23.8552 108.845 23.9602 108.761 24.0908 108.705C24.2262 108.644 24.3685 108.614 24.5178 108.614C24.7232 108.614 24.9005 108.672 25.0498 108.789C25.1992 108.901 25.2738 109.055 25.2738 109.251C25.2738 109.405 25.2342 109.538 25.1548 109.65C25.0755 109.757 24.9705 109.841 24.8398 109.902C24.7092 109.962 24.5692 109.993 24.4198 109.993ZM30.4965 119.135L31.2735 115.572C31.3622 115.17 31.4275 114.848 31.4695 114.606C31.5162 114.358 31.5395 114.139 31.5395 113.948C31.5395 113.57 31.4065 113.271 31.1405 113.052C30.8792 112.832 30.4825 112.723 29.9505 112.723C29.5538 112.723 29.1642 112.825 28.7815 113.031C28.3988 113.231 28.0698 113.504 27.7945 113.85C27.5192 114.19 27.3348 114.573 27.2415 114.998L26.5555 114.739C26.6488 114.3 26.8215 113.892 27.0735 113.514C27.3302 113.131 27.6382 112.797 27.9975 112.513C28.3615 112.223 28.7535 111.997 29.1735 111.834C29.5935 111.67 30.0158 111.589 30.4405 111.589C31.1638 111.589 31.7378 111.761 32.1625 112.107C32.5872 112.447 32.7995 112.928 32.7995 113.549C32.7995 113.805 32.7692 114.102 32.7085 114.438C32.6478 114.769 32.5615 115.184 32.4495 115.684L31.6865 119.135H30.4965ZM25.1765 119.135L26.7585 111.701H27.9485L26.3665 119.135H25.1765ZM37.1578 119.275C36.6164 119.275 36.1218 119.167 35.6738 118.953C35.2258 118.738 34.8664 118.407 34.5958 117.959C34.3298 117.511 34.1968 116.941 34.1968 116.251C34.1968 115.588 34.3064 114.974 34.5258 114.41C34.7498 113.845 35.0601 113.353 35.4568 112.933C35.8581 112.508 36.3294 112.179 36.8708 111.946C37.4168 111.708 38.0118 111.589 38.6558 111.589C39.1551 111.589 39.5984 111.68 39.9858 111.862C40.3731 112.044 40.6764 112.319 40.8958 112.688C41.1198 113.052 41.2318 113.507 41.2318 114.053C41.2318 114.188 41.2201 114.354 41.1968 114.55C41.1781 114.741 41.1501 114.904 41.1128 115.04H40.4128C40.4361 114.96 40.4548 114.853 40.4688 114.718C40.4828 114.582 40.4898 114.473 40.4898 114.389C40.4898 114.015 40.4058 113.7 40.2378 113.444C40.0744 113.187 39.8504 112.993 39.5658 112.863C39.2858 112.732 38.9731 112.667 38.6278 112.667C38.1238 112.667 37.6758 112.755 37.2838 112.933C36.8918 113.105 36.5581 113.35 36.2828 113.668C36.0121 113.98 35.8044 114.349 35.6598 114.774C35.5198 115.194 35.4498 115.649 35.4498 116.139C35.4498 116.619 35.5361 117.011 35.7088 117.315C35.8861 117.618 36.1241 117.842 36.4228 117.987C36.7261 118.127 37.0691 118.197 37.4518 118.197C37.8578 118.197 38.2521 118.106 38.6348 117.924C39.0221 117.742 39.3604 117.476 39.6498 117.126C39.9391 116.776 40.1351 116.353 40.2378 115.859L41.0428 115.908C40.8841 116.664 40.6064 117.291 40.2098 117.791C39.8178 118.29 39.3558 118.663 38.8238 118.911C38.2964 119.153 37.7411 119.275 37.1578 119.275ZM40.7348 119.135H39.5378L41.1128 111.701H42.3098L40.7348 119.135ZM47.3295 119.135L48.0435 115.852C48.1602 115.32 48.2488 114.893 48.3095 114.571C48.3702 114.244 48.4005 113.987 48.4005 113.801C48.4005 113.614 48.3678 113.439 48.3025 113.276C48.2372 113.112 48.1182 112.979 47.9455 112.877C47.7775 112.774 47.5348 112.723 47.2175 112.723C46.8628 112.723 46.5478 112.793 46.2725 112.933C46.0018 113.068 45.7685 113.248 45.5725 113.472C45.3765 113.696 45.2155 113.943 45.0895 114.214C44.9682 114.48 44.8795 114.743 44.8235 115.005L44.2075 114.732C44.3288 114.172 44.5505 113.654 44.8725 113.178C45.1992 112.702 45.5982 112.319 46.0695 112.03C46.5455 111.736 47.0682 111.589 47.6375 111.589C48.0995 111.589 48.4775 111.666 48.7715 111.82C49.0655 111.974 49.2825 112.191 49.4225 112.471C49.5672 112.746 49.6395 113.073 49.6395 113.451C49.6395 113.605 49.6208 113.798 49.5835 114.032C49.5508 114.26 49.5018 114.536 49.4365 114.858C49.3712 115.175 49.2918 115.546 49.1985 115.971L48.5125 119.135H47.3295ZM42.7585 119.135L44.3405 111.701H45.5305L43.9485 119.135H42.7585ZM51.8865 119.135L52.6355 115.866C52.7288 115.427 52.7988 115.079 52.8455 114.823C52.8922 114.561 52.9225 114.354 52.9365 114.2C52.9552 114.041 52.9645 113.901 52.9645 113.78C52.9645 113.593 52.9318 113.42 52.8665 113.262C52.8012 113.103 52.6798 112.975 52.5025 112.877C52.3298 112.774 52.0778 112.723 51.7465 112.723C51.3872 112.723 51.0722 112.79 50.8015 112.926C50.5308 113.061 50.2998 113.238 50.1085 113.458C49.9218 113.677 49.7702 113.915 49.6535 114.172C49.5415 114.424 49.4598 114.666 49.4085 114.9L48.7925 114.641C48.9045 114.109 49.1168 113.612 49.4295 113.15C49.7468 112.683 50.1388 112.307 50.6055 112.023C51.0768 111.733 51.5995 111.589 52.1735 111.589C52.6215 111.589 52.9972 111.663 53.3005 111.813C53.6038 111.962 53.8325 112.174 53.9865 112.45C54.1405 112.72 54.2175 113.047 54.2175 113.43C54.2175 113.598 54.2035 113.791 54.1755 114.011C54.1475 114.225 54.1055 114.484 54.0495 114.788C53.9935 115.091 53.9188 115.46 53.8255 115.894L53.0765 119.135H51.8865ZM56.2369 115.894L56.4609 114.83H62.2079L61.9979 115.18C62.0259 115.082 62.0469 114.981 62.0609 114.879C62.0796 114.776 62.0889 114.631 62.0889 114.445C62.0889 114.109 62.0166 113.808 61.8719 113.542C61.7272 113.271 61.5056 113.059 61.2069 112.905C60.9129 112.746 60.5349 112.667 60.0729 112.667C59.5689 112.667 59.1139 112.755 58.7079 112.933C58.3019 113.105 57.9519 113.35 57.6579 113.668C57.3686 113.985 57.1446 114.356 56.9859 114.781C56.8319 115.205 56.7549 115.667 56.7549 116.167C56.7549 116.587 56.8319 116.948 56.9859 117.252C57.1446 117.555 57.3826 117.788 57.6999 117.952C58.0219 118.11 58.4256 118.19 58.9109 118.19C59.3216 118.19 59.6786 118.15 59.9819 118.071C60.2899 117.987 60.5489 117.877 60.7589 117.742C60.9736 117.602 61.1439 117.45 61.2699 117.287C61.4006 117.123 61.4916 116.96 61.5429 116.797H62.7469C62.6816 117.095 62.5416 117.392 62.3269 117.686C62.1122 117.98 61.8322 118.248 61.4869 118.491C61.1416 118.729 60.7379 118.92 60.2759 119.065C59.8139 119.209 59.3006 119.282 58.7359 119.282C58.0779 119.282 57.5156 119.153 57.0489 118.897C56.5822 118.635 56.2252 118.274 55.9779 117.812C55.7306 117.345 55.6069 116.804 55.6069 116.188C55.6069 115.534 55.7236 114.93 55.9569 114.375C56.1949 113.815 56.5239 113.327 56.9439 112.912C57.3639 112.492 57.8516 112.167 58.4069 111.939C58.9622 111.705 59.5572 111.589 60.1919 111.589C60.8406 111.589 61.3912 111.719 61.8439 111.981C62.2966 112.242 62.6419 112.597 62.8799 113.045C63.1179 113.493 63.2369 113.999 63.2369 114.564C63.2369 114.764 63.2159 114.998 63.1739 115.264C63.1319 115.525 63.0852 115.735 63.0339 115.894H56.2369ZM69.5434 119.135L70.3204 115.572C70.409 115.17 70.4744 114.848 70.5164 114.606C70.563 114.358 70.5864 114.139 70.5864 113.948C70.5864 113.57 70.4534 113.271 70.1874 113.052C69.926 112.832 69.5294 112.723 68.9974 112.723C68.6007 112.723 68.211 112.825 67.8284 113.031C67.4457 113.231 67.1167 113.504 66.8414 113.85C66.566 114.19 66.3817 114.573 66.2884 114.998L65.6024 114.739C65.6957 114.3 65.8684 113.892 66.1204 113.514C66.377 113.131 66.685 112.797 67.0444 112.513C67.4084 112.223 67.8004 111.997 68.2204 111.834C68.6404 111.67 69.0627 111.589 69.4874 111.589C70.2107 111.589 70.7847 111.761 71.2094 112.107C71.634 112.447 71.8464 112.928 71.8464 113.549C71.8464 113.805 71.816 114.102 71.7554 114.438C71.6947 114.769 71.6084 115.184 71.4964 115.684L70.7334 119.135H69.5434ZM64.2234 119.135L65.8054 111.701H66.9954L65.4134 119.135H64.2234ZM75.5865 119.247C75.3905 119.247 75.1992 119.228 75.0125 119.191C74.8259 119.158 74.6555 119.095 74.5015 119.002C74.3522 118.908 74.2332 118.778 74.1445 118.61C74.0559 118.442 74.0115 118.227 74.0115 117.966C74.0115 117.807 74.0302 117.627 74.0675 117.427C74.1049 117.226 74.1515 116.997 74.2075 116.741L75.0615 112.751H73.2485L73.4725 111.701H74.6905C74.8399 111.701 74.9565 111.691 75.0405 111.673C75.1245 111.654 75.1899 111.619 75.2365 111.568C75.2832 111.512 75.3229 111.428 75.3555 111.316C75.3882 111.204 75.4232 111.057 75.4605 110.875L75.8035 109.237H77.0005L76.4825 111.701H78.8065L78.5825 112.751H76.2585L75.4885 116.356C75.4279 116.654 75.3765 116.906 75.3345 117.112C75.2972 117.317 75.2785 117.485 75.2785 117.616C75.2785 117.802 75.3182 117.947 75.3975 118.05C75.4815 118.148 75.6239 118.197 75.8245 118.197C75.9599 118.197 76.1022 118.185 76.2515 118.162C76.4009 118.138 76.5082 118.115 76.5735 118.092L76.3565 119.128C76.2679 119.156 76.1605 119.181 76.0345 119.205C75.9132 119.233 75.7639 119.247 75.5865 119.247ZM82.0948 119.275C81.4415 119.275 80.8791 119.146 80.4078 118.89C79.9365 118.633 79.5748 118.276 79.3228 117.819C79.0708 117.361 78.9448 116.829 78.9448 116.223C78.9448 115.565 79.0591 114.953 79.2878 114.389C79.5211 113.824 79.8455 113.334 80.2608 112.919C80.6761 112.499 81.1591 112.172 81.7098 111.939C82.2651 111.705 82.8648 111.589 83.5088 111.589C84.1668 111.589 84.7315 111.719 85.2028 111.981C85.6741 112.242 86.0358 112.601 86.2878 113.059C86.5398 113.511 86.6658 114.029 86.6658 114.613C86.6658 115.299 86.5468 115.926 86.3088 116.496C86.0708 117.065 85.7418 117.557 85.3218 117.973C84.9065 118.388 84.4211 118.71 83.8658 118.939C83.3151 119.163 82.7248 119.275 82.0948 119.275ZM82.1928 118.211C82.8041 118.211 83.3548 118.066 83.8448 117.777C84.3395 117.483 84.7315 117.074 85.0208 116.552C85.3101 116.029 85.4548 115.418 85.4548 114.718C85.4548 114.288 85.3755 113.92 85.2168 113.612C85.0628 113.304 84.8341 113.068 84.5308 112.905C84.2321 112.737 83.8611 112.653 83.4178 112.653C82.9418 112.653 82.5055 112.741 82.1088 112.919C81.7121 113.091 81.3668 113.334 81.0728 113.647C80.7835 113.959 80.5571 114.326 80.3938 114.746C80.2351 115.166 80.1558 115.623 80.1558 116.118C80.1558 116.78 80.3285 117.296 80.6738 117.665C81.0238 118.029 81.5301 118.211 82.1928 118.211ZM92.2973 119.135H91.1003L93.2983 108.81H96.1263C96.831 108.81 97.4003 108.931 97.8343 109.174C98.2683 109.416 98.5856 109.743 98.7863 110.154C98.9916 110.56 99.0943 111.012 99.0943 111.512C99.0943 112.128 98.9916 112.683 98.7863 113.178C98.581 113.668 98.2893 114.09 97.9113 114.445C97.5333 114.795 97.083 115.063 96.5603 115.25C96.0423 115.436 95.4683 115.53 94.8383 115.53H93.0673L92.2973 119.135ZM93.1583 115.089L92.7523 114.48H94.8453C95.466 114.48 96.005 114.356 96.4623 114.109C96.9196 113.861 97.2743 113.516 97.5263 113.073C97.7783 112.629 97.9043 112.111 97.9043 111.519C97.9043 111.164 97.832 110.865 97.6873 110.623C97.5473 110.375 97.3233 110.186 97.0153 110.056C96.712 109.925 96.3153 109.86 95.8253 109.86H93.7323L94.4113 109.181L93.1583 115.089ZM99.9459 115.894L100.17 114.83H105.917L105.707 115.18C105.735 115.082 105.756 114.981 105.77 114.879C105.789 114.776 105.798 114.631 105.798 114.445C105.798 114.109 105.726 113.808 105.581 113.542C105.436 113.271 105.215 113.059 104.916 112.905C104.622 112.746 104.244 112.667 103.782 112.667C103.278 112.667 102.823 112.755 102.417 112.933C102.011 113.105 101.661 113.35 101.367 113.668C101.078 113.985 100.854 114.356 100.695 114.781C100.541 115.205 100.464 115.667 100.464 116.167C100.464 116.587 100.541 116.948 100.695 117.252C100.854 117.555 101.092 117.788 101.409 117.952C101.731 118.11 102.135 118.19 102.62 118.19C103.031 118.19 103.388 118.15 103.691 118.071C103.999 117.987 104.258 117.877 104.468 117.742C104.683 117.602 104.853 117.45 104.979 117.287C105.11 117.123 105.201 116.96 105.252 116.797H106.456C106.391 117.095 106.251 117.392 106.036 117.686C105.821 117.98 105.541 118.248 105.196 118.491C104.851 118.729 104.447 118.92 103.985 119.065C103.523 119.209 103.01 119.282 102.445 119.282C101.787 119.282 101.225 119.153 100.758 118.897C100.291 118.635 99.9342 118.274 99.6869 117.812C99.4396 117.345 99.3159 116.804 99.3159 116.188C99.3159 115.534 99.4326 114.93 99.6659 114.375C99.9039 113.815 100.233 113.327 100.653 112.912C101.073 112.492 101.561 112.167 102.116 111.939C102.671 111.705 103.266 111.589 103.901 111.589C104.55 111.589 105.1 111.719 105.553 111.981C106.006 112.242 106.351 112.597 106.589 113.045C106.827 113.493 106.946 113.999 106.946 114.564C106.946 114.764 106.925 114.998 106.883 115.264C106.841 115.525 106.794 115.735 106.743 115.894H99.9459ZM107.932 119.135L109.514 111.701H110.704L110.221 113.983L109.787 113.843C109.876 113.567 110.007 113.297 110.179 113.031C110.357 112.76 110.574 112.517 110.83 112.303C111.087 112.083 111.381 111.911 111.712 111.785C112.044 111.654 112.41 111.589 112.811 111.589C113.11 111.589 113.348 111.614 113.525 111.666C113.707 111.712 113.817 111.75 113.854 111.778L113.294 112.947C113.257 112.914 113.171 112.872 113.035 112.821C112.905 112.769 112.709 112.744 112.447 112.744C112.06 112.744 111.724 112.814 111.439 112.954C111.155 113.094 110.914 113.28 110.718 113.514C110.527 113.742 110.371 113.992 110.249 114.263C110.133 114.533 110.046 114.802 109.99 115.068L109.122 119.135H107.932ZM116.333 119.275C115.932 119.275 115.561 119.233 115.22 119.149C114.88 119.065 114.583 118.946 114.331 118.792C114.079 118.633 113.883 118.444 113.743 118.225C113.603 118.005 113.533 117.76 113.533 117.49C113.533 117.396 113.543 117.289 113.561 117.168C113.585 117.042 113.606 116.946 113.624 116.881H114.821C114.807 116.923 114.793 116.983 114.779 117.063C114.77 117.142 114.765 117.205 114.765 117.252C114.765 117.56 114.917 117.795 115.22 117.959C115.524 118.117 115.951 118.197 116.501 118.197C116.851 118.197 117.192 118.162 117.523 118.092C117.859 118.017 118.137 117.893 118.356 117.721C118.576 117.548 118.685 117.308 118.685 117C118.685 116.678 118.543 116.44 118.258 116.286C117.978 116.132 117.516 116.003 116.872 115.901C116.415 115.826 115.997 115.716 115.619 115.572C115.246 115.422 114.947 115.219 114.723 114.963C114.504 114.701 114.394 114.37 114.394 113.969C114.394 113.563 114.49 113.21 114.681 112.912C114.873 112.613 115.129 112.366 115.451 112.17C115.778 111.974 116.142 111.829 116.543 111.736C116.949 111.638 117.365 111.589 117.789 111.589C118.275 111.589 118.72 111.663 119.126 111.813C119.532 111.962 119.857 112.174 120.099 112.45C120.342 112.72 120.463 113.04 120.463 113.409C120.463 113.539 120.456 113.644 120.442 113.724C120.433 113.803 120.417 113.88 120.393 113.955H119.203C119.222 113.889 119.234 113.836 119.238 113.794C119.243 113.747 119.245 113.693 119.245 113.633C119.245 113.409 119.171 113.227 119.021 113.087C118.877 112.942 118.685 112.835 118.447 112.765C118.209 112.695 117.948 112.66 117.663 112.66C117.327 112.66 117.001 112.699 116.683 112.779C116.366 112.853 116.105 112.975 115.899 113.143C115.694 113.306 115.591 113.518 115.591 113.78C115.591 114.111 115.748 114.354 116.06 114.508C116.373 114.657 116.812 114.788 117.376 114.9C117.722 114.97 118.046 115.051 118.349 115.145C118.653 115.238 118.919 115.357 119.147 115.502C119.376 115.646 119.553 115.826 119.679 116.041C119.81 116.251 119.875 116.51 119.875 116.818C119.875 117.261 119.775 117.639 119.574 117.952C119.374 118.264 119.103 118.519 118.762 118.715C118.426 118.906 118.048 119.046 117.628 119.135C117.208 119.228 116.777 119.275 116.333 119.275ZM124.888 119.275C124.234 119.275 123.672 119.146 123.201 118.89C122.729 118.633 122.368 118.276 122.116 117.819C121.864 117.361 121.738 116.829 121.738 116.223C121.738 115.565 121.852 114.953 122.081 114.389C122.314 113.824 122.638 113.334 123.054 112.919C123.469 112.499 123.952 112.172 124.503 111.939C125.058 111.705 125.658 111.589 126.302 111.589C126.96 111.589 127.524 111.719 127.996 111.981C128.467 112.242 128.829 112.601 129.081 113.059C129.333 113.511 129.459 114.029 129.459 114.613C129.459 115.299 129.34 115.926 129.102 116.496C128.864 117.065 128.535 117.557 128.115 117.973C127.699 118.388 127.214 118.71 126.659 118.939C126.108 119.163 125.518 119.275 124.888 119.275ZM124.986 118.211C125.597 118.211 126.148 118.066 126.638 117.777C127.132 117.483 127.524 117.074 127.814 116.552C128.103 116.029 128.248 115.418 128.248 114.718C128.248 114.288 128.168 113.92 128.01 113.612C127.856 113.304 127.627 113.068 127.324 112.905C127.025 112.737 126.654 112.653 126.211 112.653C125.735 112.653 125.298 112.741 124.902 112.919C124.505 113.091 124.16 113.334 123.866 113.647C123.576 113.959 123.35 114.326 123.187 114.746C123.028 115.166 122.949 115.623 122.949 116.118C122.949 116.78 123.121 117.296 123.467 117.665C123.817 118.029 124.323 118.211 124.986 118.211ZM135.797 119.135L136.574 115.572C136.663 115.17 136.728 114.848 136.77 114.606C136.817 114.358 136.84 114.139 136.84 113.948C136.84 113.57 136.707 113.271 136.441 113.052C136.18 112.832 135.783 112.723 135.251 112.723C134.855 112.723 134.465 112.825 134.082 113.031C133.7 113.231 133.371 113.504 133.095 113.85C132.82 114.19 132.636 114.573 132.542 114.998L131.856 114.739C131.95 114.3 132.122 113.892 132.374 113.514C132.631 113.131 132.939 112.797 133.298 112.513C133.662 112.223 134.054 111.997 134.474 111.834C134.894 111.67 135.317 111.589 135.741 111.589C136.465 111.589 137.039 111.761 137.463 112.107C137.888 112.447 138.1 112.928 138.1 113.549C138.1 113.805 138.07 114.102 138.009 114.438C137.949 114.769 137.862 115.184 137.75 115.684L136.987 119.135H135.797ZM130.477 119.135L132.059 111.701H133.249L131.667 119.135H130.477ZM142.459 119.275C141.917 119.275 141.423 119.167 140.975 118.953C140.527 118.738 140.167 118.407 139.897 117.959C139.631 117.511 139.498 116.941 139.498 116.251C139.498 115.588 139.607 114.974 139.827 114.41C140.051 113.845 140.361 113.353 140.758 112.933C141.159 112.508 141.63 112.179 142.172 111.946C142.718 111.708 143.313 111.589 143.957 111.589C144.456 111.589 144.899 111.68 145.287 111.862C145.674 112.044 145.977 112.319 146.197 112.688C146.421 113.052 146.533 113.507 146.533 114.053C146.533 114.188 146.521 114.354 146.498 114.55C146.479 114.741 146.451 114.904 146.414 115.04H145.714C145.737 114.96 145.756 114.853 145.77 114.718C145.784 114.582 145.791 114.473 145.791 114.389C145.791 114.015 145.707 113.7 145.539 113.444C145.375 113.187 145.151 112.993 144.867 112.863C144.587 112.732 144.274 112.667 143.929 112.667C143.425 112.667 142.977 112.755 142.585 112.933C142.193 113.105 141.859 113.35 141.584 113.668C141.313 113.98 141.105 114.349 140.961 114.774C140.821 115.194 140.751 115.649 140.751 116.139C140.751 116.619 140.837 117.011 141.01 117.315C141.187 117.618 141.425 117.842 141.724 117.987C142.027 118.127 142.37 118.197 142.753 118.197C143.159 118.197 143.553 118.106 143.936 117.924C144.323 117.742 144.661 117.476 144.951 117.126C145.24 116.776 145.436 116.353 145.539 115.859L146.344 115.908C146.185 116.664 145.907 117.291 145.511 117.791C145.119 118.29 144.657 118.663 144.125 118.911C143.597 119.153 143.042 119.275 142.459 119.275ZM146.036 119.135H144.839L146.414 111.701H147.611L146.036 119.135ZM151.671 108.194L149.347 119.135H148.164L150.488 108.194H151.671ZM151.547 119.135L153.122 111.701H154.305L152.73 119.135H151.547ZM154.193 109.993C153.983 109.993 153.804 109.937 153.654 109.825C153.505 109.708 153.43 109.549 153.43 109.349C153.43 109.195 153.47 109.064 153.549 108.957C153.629 108.845 153.734 108.761 153.864 108.705C154 108.644 154.142 108.614 154.291 108.614C154.497 108.614 154.674 108.672 154.823 108.789C154.973 108.901 155.047 109.055 155.047 109.251C155.047 109.405 155.008 109.538 154.928 109.65C154.849 109.757 154.744 109.841 154.613 109.902C154.483 109.962 154.343 109.993 154.193 109.993ZM156.056 118.043H160.396L160.165 119.135H154.425L154.649 118.085L160.074 112.765V112.793H155.951L156.182 111.701H161.684L161.46 112.751L156.063 118.057L156.056 118.043ZM165.14 119.275C164.599 119.275 164.104 119.167 163.656 118.953C163.208 118.738 162.849 118.407 162.578 117.959C162.312 117.511 162.179 116.941 162.179 116.251C162.179 115.588 162.289 114.974 162.508 114.41C162.732 113.845 163.043 113.353 163.439 112.933C163.841 112.508 164.312 112.179 164.853 111.946C165.399 111.708 165.994 111.589 166.638 111.589C167.138 111.589 167.581 111.68 167.968 111.862C168.356 112.044 168.659 112.319 168.878 112.688C169.102 113.052 169.214 113.507 169.214 114.053C169.214 114.188 169.203 114.354 169.179 114.55C169.161 114.741 169.133 114.904 169.095 115.04H168.395C168.419 114.96 168.437 114.853 168.451 114.718C168.465 114.582 168.472 114.473 168.472 114.389C168.472 114.015 168.388 113.7 168.22 113.444C168.057 113.187 167.833 112.993 167.548 112.863C167.268 112.732 166.956 112.667 166.61 112.667C166.106 112.667 165.658 112.755 165.266 112.933C164.874 113.105 164.541 113.35 164.265 113.668C163.995 113.98 163.787 114.349 163.642 114.774C163.502 115.194 163.432 115.649 163.432 116.139C163.432 116.619 163.519 117.011 163.691 117.315C163.869 117.618 164.107 117.842 164.405 117.987C164.709 118.127 165.052 118.197 165.434 118.197C165.84 118.197 166.235 118.106 166.617 117.924C167.005 117.742 167.343 117.476 167.632 117.126C167.922 116.776 168.118 116.353 168.22 115.859L169.025 115.908C168.867 116.664 168.589 117.291 168.192 117.791C167.8 118.29 167.338 118.663 166.806 118.911C166.279 119.153 165.724 119.275 165.14 119.275ZM168.717 119.135H167.52L169.095 111.701H170.292L168.717 119.135ZM173.856 119.275C173.058 119.275 172.412 119.025 171.917 118.526C171.422 118.022 171.175 117.291 171.175 116.335C171.175 115.691 171.275 115.084 171.476 114.515C171.681 113.941 171.968 113.434 172.337 112.996C172.71 112.557 173.151 112.214 173.66 111.967C174.173 111.715 174.736 111.589 175.347 111.589C175.851 111.589 176.306 111.696 176.712 111.911C177.118 112.121 177.44 112.417 177.678 112.8C177.916 113.178 178.035 113.623 178.035 114.137C178.035 114.249 178.026 114.377 178.007 114.522C177.988 114.666 177.965 114.795 177.937 114.907L177.146 114.942C177.165 114.872 177.179 114.785 177.188 114.683C177.202 114.58 177.209 114.496 177.209 114.431C177.209 114.095 177.127 113.796 176.964 113.535C176.801 113.269 176.579 113.061 176.299 112.912C176.019 112.758 175.704 112.681 175.354 112.681C174.883 112.681 174.463 112.776 174.094 112.968C173.73 113.154 173.422 113.413 173.17 113.745C172.918 114.071 172.727 114.449 172.596 114.879C172.465 115.303 172.4 115.751 172.4 116.223C172.4 116.871 172.561 117.354 172.883 117.672C173.205 117.989 173.641 118.148 174.192 118.148C174.607 118.148 175.006 118.047 175.389 117.847C175.776 117.646 176.11 117.378 176.39 117.042C176.67 116.701 176.854 116.321 176.943 115.901L177.867 115.922C177.732 116.556 177.463 117.128 177.062 117.637C176.661 118.141 176.178 118.54 175.613 118.834C175.053 119.128 174.467 119.275 173.856 119.275ZM176.25 119.135L178.574 108.194H179.771L177.447 119.135H176.25ZM183.144 119.275C182.49 119.275 181.928 119.146 181.457 118.89C180.985 118.633 180.624 118.276 180.372 117.819C180.12 117.361 179.994 116.829 179.994 116.223C179.994 115.565 180.108 114.953 180.337 114.389C180.57 113.824 180.894 113.334 181.31 112.919C181.725 112.499 182.208 112.172 182.759 111.939C183.314 111.705 183.914 111.589 184.558 111.589C185.216 111.589 185.78 111.719 186.252 111.981C186.723 112.242 187.085 112.601 187.337 113.059C187.589 113.511 187.715 114.029 187.715 114.613C187.715 115.299 187.596 115.926 187.358 116.496C187.12 117.065 186.791 117.557 186.371 117.973C185.955 118.388 185.47 118.71 184.915 118.939C184.364 119.163 183.774 119.275 183.144 119.275ZM183.242 118.211C183.853 118.211 184.404 118.066 184.894 117.777C185.388 117.483 185.78 117.074 186.07 116.552C186.359 116.029 186.504 115.418 186.504 114.718C186.504 114.288 186.424 113.92 186.266 113.612C186.112 113.304 185.883 113.068 185.58 112.905C185.281 112.737 184.91 112.653 184.467 112.653C183.991 112.653 183.554 112.741 183.158 112.919C182.761 113.091 182.416 113.334 182.122 113.647C181.832 113.959 181.606 114.326 181.443 114.746C181.284 115.166 181.205 115.623 181.205 116.118C181.205 116.78 181.377 117.296 181.723 117.665C182.073 118.029 182.579 118.211 183.242 118.211Z" fill="white" />
</svg>
