<svg viewBox="0 0 12 12" fill="none" xmlns="http://www.w3.org/2000/svg">
	<path d="M6.18315 0.866699C6.68915 0.866699 7.09982 1.27737 7.09982 1.78337V5.2667H10.5832C10.8263 5.2667 11.0594 5.36328 11.2313 5.53518C11.4032 5.70709 11.4998 5.94025 11.4998 6.18337C11.4998 6.42648 11.4032 6.65964 11.2313 6.83155C11.0594 7.00346 10.8263 7.10003 10.5832 7.10003H7.09982V10.5834C7.09982 10.8265 7.00324 11.0596 6.83133 11.2315C6.65943 11.4035 6.42627 11.5 6.18315 11.5C5.94004 11.5 5.70688 11.4035 5.53497 11.2315C5.36306 11.0596 5.26649 10.8265 5.26649 10.5834V7.10003H1.78315C1.54004 7.10003 1.30688 7.00346 1.13497 6.83155C0.963063 6.65964 0.866486 6.42648 0.866486 6.18337C0.866486 5.94025 0.963063 5.70709 1.13497 5.53518C1.30688 5.36328 1.54004 5.2667 1.78315 5.2667H5.26649V1.78337C5.26649 1.27737 5.67715 0.866699 6.18315 0.866699Z" fill="currentColor" />
</svg>
