<svg viewBox="0 0 18 19" fill="none" xmlns="http://www.w3.org/2000/svg">
	<path fill-rule="evenodd" clip-rule="evenodd" d="M10.25 1.25C10.25 0.918479 10.1183 0.600537 9.88389 0.366117C9.64947 0.131696 9.33152 0 9 0C8.66848 0 8.35054 0.131696 8.11612 0.366117C7.8817 0.600537 7.75 0.918479 7.75 1.25V9.58333C7.75 9.91485 7.8817 10.2328 8.11612 10.4672C8.35054 10.7016 8.66848 10.8333 9 10.8333C9.33152 10.8333 9.64947 10.7016 9.88389 10.4672C10.1183 10.2328 10.25 9.91485 10.25 9.58333V1.25ZM5.545 3.54167C5.6818 3.45078 5.79935 3.33384 5.89095 3.19753C5.98255 3.06121 6.0464 2.90819 6.07887 2.74719C6.11133 2.5862 6.11176 2.42039 6.08014 2.25923C6.04852 2.09807 5.98547 1.94471 5.89459 1.80792C5.8037 1.67112 5.68676 1.55357 5.55044 1.46197C5.41413 1.37037 5.26111 1.30652 5.10011 1.27405C4.93912 1.24159 4.77331 1.24116 4.61215 1.27278C4.45098 1.3044 4.29763 1.36745 4.16084 1.45833C2.95749 2.25623 1.97051 3.33977 1.28808 4.61216C0.605644 5.88454 0.248998 7.30616 0.250002 8.75C0.250002 13.5825 4.1675 17.5 9 17.5C13.8325 17.5 17.75 13.5825 17.75 8.75C17.75 5.705 16.1942 3.025 13.8392 1.45833C13.5629 1.27489 13.2251 1.20871 12.9 1.27435C12.575 1.33999 12.2893 1.53207 12.1058 1.80833C11.9224 2.0846 11.8562 2.42242 11.9219 2.74749C11.9875 3.07255 12.1796 3.35823 12.4558 3.54167C13.5747 4.28387 14.4247 5.36663 14.8802 6.62964C15.3357 7.89264 15.3723 9.26875 14.9847 10.5542C14.5971 11.8397 13.8059 12.9661 12.7281 13.7668C11.6504 14.5675 10.3435 14.9999 9.00084 14.9999C7.65821 14.9999 6.35128 14.5675 5.27354 13.7668C4.1958 12.9661 3.40455 11.8397 3.01695 10.5542C2.62934 9.26875 2.66599 7.89264 3.12146 6.62964C3.57693 5.36663 4.42618 4.28387 5.545 3.54167Z" fill="currentColor" />
</svg>
