<svg viewBox="0 0 17 16" fill="none" xmlns="http://www.w3.org/2000/svg">
	<path fill-rule="evenodd" clip-rule="evenodd" d="M5.26586 3.55556C5.26586 2.61256 5.64046 1.70819 6.30725 1.0414C6.97405 0.374602 7.87842 0 8.82141 0C9.7644 0 10.6688 0.374602 11.3356 1.0414C12.0024 1.70819 12.377 2.61256 12.377 3.55556C12.377 4.49855 12.0024 5.40292 11.3356 6.06971C10.6688 6.73651 9.7644 7.11111 8.82141 7.11111C7.87842 7.11111 6.97405 6.73651 6.30725 6.06971C5.64046 5.40292 5.26586 4.49855 5.26586 3.55556ZM5.26586 8.88889C4.08712 8.88889 2.95665 9.35714 2.12316 10.1906C1.28966 11.0241 0.821411 12.1546 0.821411 13.3333C0.821411 14.0406 1.10236 14.7189 1.60246 15.219C2.10256 15.719 2.78083 16 3.48808 16H14.1547C14.862 16 15.5403 15.719 16.0404 15.219C16.5405 14.7189 16.8214 14.0406 16.8214 13.3333C16.8214 12.1546 16.3532 11.0241 15.5197 10.1906C14.6862 9.35714 13.5557 8.88889 12.377 8.88889H5.26586Z" fill="currentColor" />
</svg>
