<svg viewBox="0 0 22 22" fill="none" xmlns="http://www.w3.org/2000/svg">
	<path fill-rule="evenodd" clip-rule="evenodd" d="M10.9839 0.461914C11.1593 0.462024 11.3324 0.501537 11.4905 0.577536C11.6486 0.653534 11.7875 0.764076 11.8972 0.900995L16.5807 6.75541C16.6825 6.87468 16.7594 7.0132 16.8067 7.16275C16.854 7.31229 16.8707 7.46981 16.856 7.62595C16.8412 7.78209 16.7952 7.93368 16.7207 8.07171C16.6463 8.20974 16.5448 8.33141 16.4224 8.42948C16.3 8.52755 16.1592 8.60004 16.0082 8.64263C15.8573 8.68522 15.6993 8.69705 15.5437 8.67742C15.3881 8.65779 15.238 8.6071 15.1024 8.52835C14.9668 8.44961 14.8483 8.34441 14.7541 8.21902L12.1548 4.96981V13.3416C12.1548 13.6522 12.0314 13.95 11.8118 14.1696C11.5922 14.3892 11.2944 14.5125 10.9839 14.5125C10.6733 14.5125 10.3755 14.3892 10.1559 14.1696C9.93635 13.95 9.81299 13.6522 9.81299 13.3416V4.96981L7.21363 8.22019C7.11942 8.34558 7.00099 8.45078 6.86535 8.52952C6.72971 8.60827 6.57963 8.65896 6.42403 8.67859C6.26842 8.69822 6.11046 8.68639 5.95951 8.6438C5.80856 8.60121 5.66771 8.52872 5.54532 8.43065C5.42292 8.33258 5.32148 8.21091 5.24701 8.07288C5.17254 7.93485 5.12655 7.78326 5.11179 7.62712C5.09703 7.47098 5.11379 7.31346 5.16107 7.16392C5.20836 7.01437 5.2852 6.87586 5.38705 6.75658L10.0706 0.902166C10.1801 0.765032 10.319 0.654268 10.4771 0.578063C10.6352 0.501859 10.8084 0.462164 10.9839 0.461914ZM7.47122 13.3416V12.1707H2.78769C2.16661 12.1707 1.57098 12.4175 1.13181 12.8566C0.692644 13.2958 0.445923 13.8914 0.445923 14.5125V19.196C0.445923 19.8171 0.692644 20.4128 1.13181 20.8519C1.57098 21.2911 2.16661 21.5378 2.78769 21.5378H19.1801C19.8011 21.5378 20.3968 21.2911 20.8359 20.8519C21.2751 20.4128 21.5218 19.8171 21.5218 19.196V14.5125C21.5218 13.8914 21.2751 13.2958 20.8359 12.8566C20.3968 12.4175 19.8011 12.1707 19.1801 12.1707H14.4965V13.3416C14.4965 14.2732 14.1264 15.1667 13.4677 15.8254C12.8089 16.4842 11.9155 16.8543 10.9839 16.8543C10.0523 16.8543 9.1588 16.4842 8.50005 15.8254C7.8413 15.1667 7.47122 14.2732 7.47122 13.3416ZM16.8383 15.6834C16.5278 15.6834 16.2299 15.8068 16.0103 16.0263C15.7908 16.2459 15.6674 16.5437 15.6674 16.8543C15.6674 17.1648 15.7908 17.4626 16.0103 17.6822C16.2299 17.9018 16.5278 18.0252 16.8383 18.0252H16.85C17.1605 18.0252 17.4584 17.9018 17.6779 17.6822C17.8975 17.4626 18.0209 17.1648 18.0209 16.8543C18.0209 16.5437 17.8975 16.2459 17.6779 16.0263C17.4584 15.8068 17.1605 15.6834 16.85 15.6834H16.8383Z" fill="currentColor" />
</svg>
