<svg viewBox="0 0 106 106" fill="none" xmlns="http://www.w3.org/2000/svg">
	<circle cx="53" cy="53" r="53" fill="#262626" />
	<path d="M41.8382 43.1628C41.8382 40.4675 42.9088 37.8825 44.8146 35.9766C46.7203 34.0707 49.3051 33 52.0002 33C54.6954 33 57.2801 34.0707 59.1859 35.9766C61.0916 37.8825 62.1623 40.4675 62.1623 43.1628C62.1623 45.8582 61.0916 48.4431 59.1859 50.349C57.2801 52.2549 54.6954 53.3256 52.0002 53.3256C49.3051 53.3256 46.7203 52.2549 44.8146 50.349C42.9088 48.4431 41.8382 45.8582 41.8382 43.1628ZM51.6432 55.9962C51.7193 55.9848 51.7961 55.9783 51.873 55.9768H52.1275C52.2052 55.9768 52.2818 55.9833 52.3572 55.9962L65.2497 58.2639L65.3169 58.278C67.6922 58.8259 70.2442 60.3335 70.7408 63.2622L70.7478 63.3134L70.9493 64.8635V64.867C71.4159 68.4178 68.6006 71.0001 65.2762 71.0001C65.2029 70.9987 65.1297 70.9928 65.0571 70.9824H38.7242C35.3999 70.9824 32.5828 68.3984 33.0512 64.8458L33.2526 63.3099L33.2615 63.2569C33.7563 60.3813 36.3295 58.7888 38.6995 58.2745L38.7507 58.2639L51.6432 55.9962Z" fill="#98C739" />
</svg>
