<svg viewBox="0 0 22 19" fill="none" xmlns="http://www.w3.org/2000/svg">
	<path d="M13 1C16.771 1 18.657 1 19.828 2.245C20.999 3.49 21 5.493 21 9.5C21 13.507 21 15.51 19.828 16.755C18.656 18 16.771 18 13 18H9C5.229 18 3.343 18 2.172 16.755C1.001 15.51 1 13.507 1 9.5C1 5.493 1 3.49 2.172 2.245C3.344 1 5.229 1 9 1H13Z" stroke="currentColor" stroke-width="1.5" stroke-linecap="round" stroke-linejoin="round" />
	<path d="M4 13C5.609 10.863 9.354 10.746 11 13M14 7H18M14 11H16M9.249 7.75C9.249 8.21413 9.06463 8.65925 8.73644 8.98744C8.40825 9.31563 7.96313 9.5 7.499 9.5C7.03487 9.5 6.58975 9.31563 6.26156 8.98744C5.93337 8.65925 5.749 8.21413 5.749 7.75C5.749 7.28587 5.93337 6.84075 6.26156 6.51256C6.58975 6.18437 7.03487 6 7.499 6C7.96313 6 8.40825 6.18437 8.73644 6.51256C9.06463 6.84075 9.249 7.28587 9.249 7.75Z" stroke="currentColor" stroke-width="1.5" stroke-linecap="round" stroke-linejoin="round" />
</svg>
